:FULLY-SPECIFIED
:FORCE-ALL-JOINTS-BE-3DOF
:DEGREES
259
root 9.68927 16.6543 -0.223268 8.40514 -6.77802 1.35978
lfemur -29.4096 8.4653 -27.6371
ltibia 31.5951 0 0
lfoot -12.2462 5.86605 0
ltoes 3.36242 0 0
rfemur -7.21813 0.548065 13.4347
rtibia 53.3765 0 0
rfoot 5.91721 -6.95873 0
rtoes -20.7446 0 0
lowerback -5.80364 0.985469 -2.89193
upperback -2.05612 1.46817 1.36942
thorax 1.10087 0.733878 3.07759
lowerneck -20.4187 -5.07128 -12.9652
upperneck 18.8238 -6.14305 13.2601
head 10.2175 -2.29974 6.00367
lclavicle -1.46715e-14 -2.09232e-15 0
lhumerus -35.9931 -9.61328 88.4203
lradius 23.3599 0 0
lwrist -2.21028 0 0
lhand -8.61873 -22.6999 0
lfingers 7.12502 0 0
lthumb 17.3135 6.55048 0
rclavicle -1.46715e-14 -2.09232e-15 0
rhumerus -46.8928 8.92667 -86.2151
rradius 38.7884 0 0
rwrist -21.2712 0 0
rhand -29.5354 -28.6668 0
rfingers 7.12502 0 0
rthumb -2.86875 -58.6268 0
260
root 9.70547 16.6559 -0.0817109 8.39836 -6.47054 1.56596
lfemur -27.9017 8.26244 -27.8919
ltibia 29.8 0 0
lfoot -12.4358 5.58766 0
ltoes 3.41513 0 0
rfemur -8.41701 1.1637 12.6457
rtibia 52.6343 0 0
rfoot 4.75848 -7.60192 0
rtoes -20.9097 0 0
lowerback -5.88696 0.800307 -3.08367
upperback -2.01867 1.23929 1.36658
thorax 1.21989 0.614496 3.15546
lowerneck -20.3682 -5.03842 -12.9521
upperneck 18.9091 -6.10077 13.2061
head 10.2293 -2.28736 5.99088
lclavicle -1.66256e-14 -2.24409e-15 0
lhumerus -34.9941 -10.4072 88.2978
lradius 23.849 0 0
lwrist -1.62867 0 0
lhand -8.63614 -22.6598 0
lfingers 7.12502 0 0
lthumb 17.2968 6.59242 0
rclavicle -1.66256e-14 -2.24409e-15 0
rhumerus -47.1092 8.72781 -86.0984
rradius 38.6036 0 0
rwrist -21.1538 0 0
rhand -29.4753 -28.6343 0
rfingers 7.12502 0 0
rthumb -2.81069 -58.595 0
261
root 9.7213 16.6575 0.0585899 8.39027 -6.15813 1.76567
lfemur -26.4146 8.06282 -28.1327
ltibia 28.0628 0 0
lfoot -12.6178 5.3181 0
ltoes 3.46092 0 0
rfemur -9.60395 1.77087 11.8814
rtibia 51.8907 0 0
rfoot 3.60618 -8.22705 0
rtoes -21.0657 0 0
lowerback -5.96886 0.616589 -3.2703
upperback -1.98136 1.01189 1.36482
thorax 1.33749 0.495933 3.23191
lowerneck -20.3183 -5.00694 -12.9395
upperneck 18.9942 -6.06063 13.1536
head 10.2416 -2.27579 5.97846
lclavicle -1.85126e-14 -2.3883e-15 0
lhumerus -34.0166 -11.1957 88.186
lradius 24.3312 0 0
lwrist -1.04961 0 0
lhand -8.65699 -22.619 0
lfingers 7.12502 0 0
lthumb 17.2767 6.63531 0
rclavicle -1.85126e-14 -2.3883e-15 0
rhumerus -47.3171 8.53642 -85.9831
rradius 38.4233 0 0
rwrist -21.0399 0 0
rhand -29.4168 -28.6014 0
rfingers 7.12502 0 0
rthumb -2.75418 -58.5628 0
262
root 9.73677 16.659 0.197694 8.38091 -5.84114 1.95899
lfemur -24.9485 7.86645 -28.3598
ltibia 26.3829 0 0
lfoot -12.7923 5.05726 0
ltoes 3.49999 0 0
rfemur -10.7786 2.36945 11.1416
rtibia 51.1461 0 0
rfoot 2.46088 -8.83427 0
rtoes -21.2126 0 0
lowerback -6.04933 0.43439 -3.45185
upperback -1.9442 0.786048 1.36411
thorax 1.45363 0.378243 3.30694
lowerneck -20.2688 -4.97682 -12.9275
upperneck 19.0788 -6.02257 13.1027
head 10.2543 -2.26502 5.96639
lclavicle -2.03334e-14 -2.52509e-15 0
lhumerus -33.0605 -11.9784 88.0848
lradius 24.8064 0 0
lwrist -0.473376 0 0
lhand -8.68116 -22.5776 0
lfingers 7.12502 0 0
lthumb 17.2535 6.67909 0
rclavicle -2.03334e-14 -2.52509e-15 0
rhumerus -47.5163 8.35241 -85.8692
rradius 38.2473 0 0
rwrist -20.9293 0 0
rhand -29.3599 -28.5681 0
rfingers 7.12502 0 0
rthumb -2.69921 -58.53 0
263
root 9.75186 16.6605 0.335662 8.37032 -5.51992 2.14598
lfemur -23.5038 7.67338 -28.5734
ltibia 24.7596 0 0
lfoot -12.9592 4.80507 0
ltoes 3.53252 0 0
rfemur -11.9404 2.9593 10.4261
rtibia 50.4011 0 0
rfoot 1.32314 -9.4237 0
rtoes -21.3508 0 0
lowerback -6.12837 0.253787 -3.62835
upperback -1.9072 0.561883 1.36442
thorax 1.56828 0.261477 3.38053
lowerneck -20.2198 -4.94804 -12.916
upperneck 19.1631 -5.98657 13.0535
head 10.2673 -2.25502 5.95467
lclavicle -2.20887e-14 -2.65458e-15 0
lhumerus -32.1257 -12.755 87.9939
lradius 25.2744 0 0
lwrist 0.0997135 0 0
lhand -8.70853 -22.5355 0
lfingers 7.12502 0 0
lthumb 17.2272 6.72371 0
rclavicle -2.20887e-14 -2.65458e-15 0
rhumerus -47.7072 8.17567 -85.7568
rradius 38.0757 0 0
rwrist -20.8222 0 0
rhand -29.3045 -28.5343 0
rfingers 7.12502 0 0
rthumb -2.64577 -58.4969 0
264
root 9.76659 16.6619 0.472552 8.35855 -5.19484 2.3267
lfemur -22.0808 7.48363 -28.7739
ltibia 23.1923 0 0
lfoot -13.1189 4.56142 0
ltoes 3.55867 0 0
rfemur -13.0891 3.54027 9.73469
rtibia 49.6562 0 0
rfoot 0.193494 -9.99548 0
rtoes -21.4803 0 0
lowerback -6.20596 0.0748551 -3.79984
upperback -1.87039 0.339495 1.36571
thorax 1.6814 0.145688 3.45268
lowerneck -20.1715 -4.92057 -12.905
upperneck 19.2469 -5.95258 13.0058
head 10.2807 -2.24579 5.9433
lclavicle -2.37794e-14 -2.77692e-15 0
lhumerus -31.2124 -13.5251 87.913
lradius 25.7352 0 0
lwrist 0.669364 0 0
lhand -8.73899 -22.4929 0
lfingers 7.12502 0 0
lthumb 17.1979 6.76911 0
rclavicle -2.37794e-14 -2.77692e-15 0
rhumerus -47.8899 8.00611 -85.6458
rradius 37.9085 0 0
rwrist -20.7183 0 0
rhand -29.2508 -28.5001 0
rfingers 7.12502 0 0
rthumb -2.59385 -58.4633 0
265
root 9.78094 16.6633 0.608424 8.34564 -4.86623 2.50121
lfemur -20.6799 7.29725 -28.9615
ltibia 21.6805 0 0
lfoot -13.2714 4.32623 0
ltoes 3.57863 0 0
rfemur -14.2242 4.11223 9.06701
rtibia 48.912 0 0
rfoot -0.92749 -10.5498 0
rtoes -21.6014 0 0
lowerback -6.28208 -0.10233 -3.96635
upperback -1.8338 0.118987 1.36796
thorax 1.79297 0.0309275 3.52338
lowerneck -20.1236 -4.8944 -12.8945
upperneck 19.3302 -5.92057 12.9597
head 10.2944 -2.23729 5.93229
lclavicle -2.54061e-14 -2.89223e-15 0
lhumerus -30.3204 -14.2883 87.8419
lradius 26.1886 0 0
lwrist 1.23528 0 0
lhand -8.77242 -22.4497 0
lfingers 7.12502 0 0
lthumb 17.1657 6.81523 0
rclavicle -2.54061e-14 -2.89223e-15 0
rhumerus -48.0643 7.84361 -85.5363
rradius 37.7456 0 0
rwrist -20.6178 0 0
rhand -29.1986 -28.4656 0
rfingers 7.12502 0 0
rthumb -2.54344 -58.4294 0
266
root 9.79492 16.6646 0.743338 8.33163 -4.53445 2.6696
lfemur -19.3015 7.11425 -29.1364
ltibia 20.2235 0 0
lfoot -13.4167 4.0994 0
ltoes 3.59259 0 0
rfemur -15.3453 4.67504 8.42286
rtibia 48.169 0 0
rfoot -2.03926 -11.0867 0
rtoes -21.7142 0 0
lowerback -6.35674 -0.277692 -4.12791
upperback -1.79743 -0.0995374 1.37114
thorax 1.90294 -0.0827514 3.59263
lowerneck -20.0764 -4.86951 -12.8846
upperneck 19.4129 -5.89049 12.9151
head 10.3084 -2.22953 5.92161
lclavicle -2.69698e-14 -3.00066e-15 0
lhumerus -29.4498 -15.0444 87.7803
lradius 26.6347 0 0
lwrist 1.79715 0 0
lhand -8.8087 -22.406 0
lfingers 7.12502 0 0
lthumb 17.1308 6.86202 0
rclavicle -2.69698e-14 -3.00066e-15 0
rhumerus -48.2308 7.68808 -85.4284
rradius 37.587 0 0
rwrist -20.5206 0 0
rhand -29.1479 -28.4308 0
rfingers 7.12502 0 0
rthumb -2.49453 -58.3951 0
